<?xml version="1.0" encoding="UTF-8" ?>
<!DOCTYPE svg PUBLIC "-//W3C//DTD SVG 1.1//EN" "http://www.w3.org/Graphics/SVG/1.1/DTD/svg11.dtd">
<svg width="594pt" height="74pt" viewBox="0 0 594 74" version="1.1" xmlns="http://www.w3.org/2000/svg">
<path fill="#ffffff" d=" M 0.00 0.00 L 485.39 0.00 C 483.80 0.53 482.22 0.98 480.61 1.37 C 473.65 2.74 469.03 8.98 467.35 15.53 C 467.04 16.58 466.72 17.62 466.39 18.66 C 466.08 19.98 465.76 21.29 465.42 22.60 C 464.39 26.29 463.40 30.00 462.39 33.70 C 462.09 35.04 461.76 36.37 461.41 37.69 C 461.10 39.02 460.78 40.36 460.42 41.68 C 460.09 42.96 459.76 44.24 459.41 45.52 C 458.65 47.89 458.03 50.31 457.39 52.72 C 457.06 54.13 456.71 55.54 456.36 56.94 C 462.08 56.77 467.81 56.84 473.54 56.88 C 474.05 54.32 474.75 51.80 475.59 49.32 C 475.90 47.98 476.21 46.64 476.59 45.32 C 476.89 43.98 477.20 42.64 477.57 41.32 C 477.91 40.04 478.23 38.75 478.61 37.48 C 479.28 35.32 479.85 33.14 480.26 30.92 C 485.68 30.81 491.11 30.83 496.53 30.87 C 496.88 29.70 497.24 28.54 497.62 27.38 C 498.09 25.32 498.62 23.28 499.10 21.23 C 493.77 21.10 488.45 21.20 483.13 21.06 C 483.49 19.57 483.83 18.07 484.14 16.56 C 485.22 13.83 486.73 11.21 489.47 9.87 C 495.28 9.83 501.08 9.86 506.89 9.83 C 507.49 8.01 508.03 6.16 508.60 4.33 C 508.92 2.88 509.25 1.43 509.67 0.00 L 594.00 0.00 L 594.00 20.75 C 591.25 16.30 585.91 15.07 581.03 15.13 C 557.65 15.19 534.27 15.12 510.89 15.17 C 510.00 18.32 509.21 21.49 508.40 24.65 C 507.73 27.32 507.10 30.00 506.39 32.66 C 505.33 36.32 504.36 40.01 503.39 43.70 C 503.09 45.03 502.77 46.36 502.43 47.69 C 502.09 49.05 501.72 50.41 501.31 51.75 C 501.24 52.38 501.09 53.63 501.02 54.26 C 500.57 55.08 500.13 55.90 499.69 56.72 C 505.36 56.84 511.04 57.03 516.70 56.73 C 518.05 55.32 517.97 53.17 518.65 51.44 C 520.04 46.41 521.24 41.34 522.61 36.30 C 522.90 35.01 523.18 33.71 523.49 32.42 C 524.71 29.23 525.86 25.60 529.24 24.06 C 529.80 23.92 530.92 23.63 531.48 23.49 C 534.50 22.31 537.61 23.33 540.58 24.09 C 540.99 24.76 541.80 26.10 542.21 26.77 C 542.08 28.76 541.92 30.75 541.52 32.71 C 541.14 33.99 540.77 35.28 540.38 36.55 C 539.15 41.62 537.74 46.65 536.42 51.69 C 536.02 53.41 535.52 55.11 535.04 56.81 C 540.55 56.87 546.06 56.82 551.57 56.87 C 551.87 55.34 552.18 53.82 552.55 52.31 C 552.88 51.00 553.22 49.70 553.62 48.41 C 554.66 44.72 555.49 40.98 556.60 37.31 C 556.90 35.99 557.19 34.67 557.54 33.36 C 558.31 29.62 560.13 26.16 563.39 24.02 C 566.00 23.49 568.65 23.09 571.30 22.77 C 572.94 23.82 574.59 24.87 576.20 25.97 C 576.39 29.64 575.78 33.26 574.41 36.66 C 573.78 39.35 573.10 42.02 572.43 44.70 C 572.09 45.96 571.75 47.23 571.41 48.49 C 570.65 51.27 569.75 54.02 569.04 56.81 C 574.88 56.88 580.72 56.82 586.57 56.87 C 586.87 55.34 587.18 53.82 587.56 52.31 C 587.88 50.97 588.20 49.64 588.60 48.32 C 588.90 47.00 589.21 45.68 589.58 44.37 C 591.08 39.13 592.33 33.82 594.00 28.63 L 594.00 74.00 L 155.37 74.00 C 155.68 73.67 156.29 73.01 156.59 72.68 C 157.63 68.90 158.62 65.11 159.56 61.31 C 159.92 59.80 159.97 58.06 161.34 57.04 C 171.97 56.02 182.89 58.24 193.36 55.67 C 194.41 55.30 195.47 54.95 196.54 54.63 C 199.01 52.93 201.84 51.34 203.20 48.53 C 205.44 44.77 206.41 40.49 207.59 36.33 C 207.91 34.99 208.24 33.64 208.60 32.31 C 209.06 28.80 210.87 25.08 208.95 21.69 C 208.14 18.64 205.19 17.20 202.44 16.31 C 201.00 16.02 199.56 15.69 198.16 15.28 C 183.59 14.97 169.02 15.27 154.45 15.13 C 154.13 16.58 153.80 18.03 153.44 19.47 C 152.21 23.15 151.40 26.95 150.40 30.69 C 150.09 32.03 149.77 33.36 149.42 34.68 C 149.10 36.00 148.76 37.32 148.40 38.62 C 147.75 40.98 147.08 43.33 146.39 45.68 C 146.10 47.02 145.77 48.36 145.41 49.69 C 145.10 51.03 144.79 52.36 144.43 53.68 C 144.10 54.96 143.77 56.24 143.41 57.50 C 142.23 61.18 141.39 64.94 140.41 68.67 C 140.00 70.45 139.55 72.23 139.11 74.00 L 0.00 74.00 L 0.00 56.76 C 6.18 56.94 12.37 56.79 18.56 56.87 C 18.87 55.41 19.19 53.96 19.56 52.51 C 20.79 48.83 21.61 45.04 22.58 41.30 C 22.91 40.03 23.24 38.75 23.61 37.50 C 24.73 33.81 25.35 29.98 26.57 26.32 C 26.92 24.99 27.25 23.65 27.60 22.32 C 28.10 19.99 28.68 17.67 29.26 15.36 C 30.01 13.35 32.30 14.00 33.96 13.83 C 40.81 13.86 47.65 13.81 54.50 13.90 C 55.39 14.78 56.29 15.66 57.20 16.53 C 57.37 21.73 55.79 26.74 54.42 31.69 C 54.09 33.00 53.76 34.32 53.40 35.63 C 52.76 38.27 52.05 40.90 51.40 43.54 C 50.20 47.22 49.41 51.00 48.35 54.71 C 48.28 55.24 48.14 56.29 48.07 56.82 C 54.23 56.88 60.40 56.82 66.57 56.87 C 66.87 55.34 67.19 53.81 67.55 52.30 C 67.88 51.00 68.23 49.71 68.62 48.42 C 69.94 43.38 71.21 38.33 72.62 33.31 C 72.91 31.97 73.21 30.64 73.58 29.33 C 73.91 28.04 74.24 26.76 74.63 25.48 C 76.00 21.95 75.87 18.14 76.33 14.43 C 76.12 13.12 75.95 11.80 75.81 10.48 C 74.11 6.13 69.42 4.45 65.11 4.15 C 61.40 3.93 57.74 3.04 54.01 3.15 C 40.66 3.22 27.31 3.11 13.96 3.22 C 13.41 5.31 12.97 7.43 12.40 9.52 C 11.22 13.20 10.37 16.96 9.42 20.71 C 9.08 22.01 8.74 23.32 8.37 24.62 C 7.66 27.24 7.02 29.87 6.42 32.52 C 5.21 36.19 4.38 39.97 3.41 43.70 C 3.09 45.02 2.76 46.32 2.38 47.62 C 1.63 50.53 0.92 53.46 0.00 56.32 L 0.00 0.00 Z" />
<path fill="#000000" d=" M 485.39 0.00 L 509.67 0.00 C 509.25 1.43 508.92 2.88 508.60 4.33 C 508.03 6.16 507.49 8.01 506.89 9.83 C 501.08 9.86 495.28 9.83 489.47 9.87 C 486.73 11.21 485.22 13.83 484.14 16.56 C 483.83 18.07 483.49 19.57 483.13 21.06 C 488.45 21.20 493.77 21.10 499.10 21.23 C 498.62 23.28 498.09 25.32 497.62 27.38 C 497.24 28.54 496.88 29.70 496.53 30.87 C 491.11 30.83 485.68 30.81 480.26 30.92 C 479.85 33.14 479.28 35.32 478.61 37.48 C 478.23 38.75 477.91 40.04 477.57 41.32 C 477.20 42.64 476.89 43.98 476.59 45.32 C 476.21 46.64 475.90 47.98 475.59 49.32 C 474.75 51.80 474.05 54.32 473.54 56.88 C 467.81 56.84 462.08 56.77 456.36 56.94 C 456.71 55.54 457.06 54.13 457.39 52.72 C 458.03 50.31 458.65 47.89 459.41 45.52 C 459.76 44.24 460.09 42.96 460.42 41.68 C 460.78 40.36 461.10 39.02 461.41 37.69 C 461.76 36.37 462.09 35.04 462.39 33.70 C 463.40 30.00 464.39 26.29 465.42 22.60 C 465.76 21.29 466.08 19.98 466.39 18.66 C 466.72 17.62 467.04 16.58 467.35 15.53 C 469.03 8.98 473.65 2.74 480.61 1.37 C 482.22 0.98 483.80 0.53 485.39 0.00 Z" />
<path fill="#000000" d=" M 13.96 3.22 C 27.31 3.11 40.66 3.22 54.01 3.15 C 57.74 3.04 61.40 3.93 65.11 4.15 C 69.42 4.45 74.11 6.13 75.81 10.48 C 75.95 11.80 76.12 13.12 76.33 14.43 C 75.87 18.14 76.00 21.95 74.63 25.48 C 74.24 26.76 73.91 28.04 73.58 29.33 C 73.21 30.64 72.91 31.97 72.62 33.31 C 71.21 38.33 69.94 43.38 68.62 48.42 C 68.23 49.71 67.88 51.00 67.55 52.30 C 67.19 53.81 66.87 55.34 66.57 56.87 C 60.40 56.82 54.23 56.88 48.07 56.82 C 48.14 56.29 48.28 55.24 48.35 54.71 C 49.41 51.00 50.20 47.22 51.40 43.54 C 52.05 40.90 52.76 38.27 53.40 35.63 C 53.76 34.32 54.09 33.00 54.42 31.69 C 55.79 26.74 57.37 21.73 57.20 16.53 C 56.29 15.66 55.39 14.78 54.50 13.90 C 47.65 13.81 40.81 13.86 33.96 13.83 C 32.30 14.00 30.01 13.35 29.26 15.36 C 28.68 17.67 28.10 19.99 27.60 22.32 C 27.25 23.65 26.92 24.99 26.57 26.32 C 25.35 29.98 24.73 33.81 23.61 37.50 C 23.24 38.75 22.91 40.03 22.58 41.30 C 21.61 45.04 20.79 48.83 19.56 52.51 C 19.19 53.96 18.87 55.41 18.56 56.87 C 12.37 56.79 6.18 56.94 0.00 56.76 L 0.00 56.32 C 0.92 53.46 1.63 50.53 2.38 47.62 C 2.76 46.32 3.09 45.02 3.41 43.70 C 4.38 39.97 5.21 36.19 6.42 32.52 C 7.02 29.87 7.66 27.24 8.37 24.62 C 8.74 23.32 9.08 22.01 9.42 20.71 C 10.37 16.96 11.22 13.20 12.40 9.52 C 12.97 7.43 13.41 5.31 13.96 3.22 Z" />
<path fill="#000000" d=" M 292.39 3.26 C 297.56 3.02 302.73 3.24 307.90 3.20 C 307.84 4.22 307.77 5.25 307.70 6.28 C 307.21 7.60 306.88 8.97 306.52 10.33 C 306.11 11.88 305.93 13.47 305.74 15.06 C 309.50 15.16 313.26 15.15 317.02 15.21 C 316.44 16.89 315.90 18.59 315.57 20.34 C 315.13 21.80 314.78 23.27 314.45 24.75 C 310.80 24.96 307.13 24.63 303.50 25.04 C 301.69 25.66 302.03 27.90 301.61 29.37 C 300.89 31.69 300.24 34.03 299.62 36.37 C 299.20 37.68 298.87 39.01 298.57 40.36 C 297.66 42.50 297.36 45.17 299.12 46.98 C 299.74 47.18 300.98 47.58 301.60 47.78 C 304.04 48.05 306.49 48.21 308.95 48.23 C 308.87 48.76 308.71 49.80 308.63 50.32 C 308.20 51.67 307.89 53.05 307.64 54.44 C 307.38 55.05 306.86 56.26 306.60 56.87 C 299.57 56.82 292.55 56.86 285.53 56.85 C 283.10 55.75 281.23 53.86 280.13 51.43 C 280.16 49.86 280.19 48.29 280.27 46.72 C 281.01 45.13 281.14 43.37 281.37 41.66 C 282.11 39.33 282.80 36.99 283.40 34.63 C 283.79 33.31 284.11 31.97 284.42 30.63 C 284.86 28.72 285.35 26.82 285.97 24.96 C 283.67 24.90 281.37 24.85 279.08 24.80 C 279.15 23.78 279.23 22.76 279.32 21.74 C 279.79 20.39 280.11 18.99 280.37 17.59 C 280.62 16.98 281.13 15.75 281.39 15.14 C 283.91 15.16 286.44 15.13 288.97 15.06 C 289.07 13.95 289.18 12.83 289.31 11.71 C 289.78 10.37 290.11 8.99 290.37 7.59 C 291.07 6.19 290.98 4.21 292.39 3.26 Z" />
<path fill="#000000" d=" M 100.75 14.26 C 111.26 14.09 121.77 14.07 132.28 14.27 C 133.35 14.67 134.43 15.01 135.54 15.30 C 137.10 16.03 138.48 17.06 139.70 18.27 C 139.97 19.44 140.31 20.60 140.71 21.73 C 140.72 22.58 140.72 23.44 140.72 24.29 C 139.77 26.16 139.87 28.28 139.67 30.30 C 138.94 32.65 138.33 35.04 137.61 37.39 C 137.20 38.70 136.88 40.03 136.57 41.36 C 136.21 42.69 135.87 44.02 135.58 45.36 C 135.21 46.68 134.87 48.01 134.57 49.35 C 134.21 50.67 133.88 52.00 133.58 53.34 C 133.24 54.52 132.91 55.70 132.58 56.87 C 116.93 56.78 101.29 56.92 85.64 56.80 C 85.09 56.53 83.98 55.99 83.43 55.72 C 81.43 54.93 80.05 53.40 79.14 51.49 C 79.14 49.24 79.15 46.98 79.25 44.73 C 79.66 43.66 80.01 42.57 80.31 41.47 C 82.10 37.55 85.60 34.58 89.66 33.21 C 92.52 33.06 95.60 33.64 98.18 32.07 C 98.64 32.35 99.55 32.90 100.01 33.18 C 100.88 32.86 101.76 32.55 102.64 32.24 C 108.58 32.84 114.68 32.59 120.64 32.02 C 121.83 30.83 123.01 29.63 124.20 28.44 C 123.93 26.59 124.71 23.93 122.49 23.03 C 117.40 22.65 112.26 22.81 107.16 22.94 C 104.61 23.08 105.30 26.53 103.64 27.77 C 98.07 27.97 92.49 27.84 86.92 27.76 C 87.35 26.01 87.89 24.29 88.26 22.52 C 89.63 20.19 90.76 17.39 93.41 16.25 C 93.96 16.01 95.04 15.54 95.59 15.30 C 97.34 15.15 99.16 15.11 100.75 14.26 Z" />
<path fill="#000000" d=" M 233.76 14.28 C 243.93 14.07 254.11 14.07 264.28 14.27 C 265.63 14.88 267.11 15.10 268.57 15.27 C 270.17 16.08 271.59 17.17 272.92 18.37 C 272.85 20.01 272.81 21.64 272.73 23.27 C 272.28 24.45 271.88 25.66 271.55 26.88 C 265.76 26.88 259.98 26.70 254.20 26.99 C 255.15 25.52 255.43 23.85 253.52 23.02 C 248.49 22.62 243.43 22.91 238.39 22.89 C 237.16 24.05 235.98 25.24 234.82 26.45 C 235.06 28.33 234.25 31.04 236.51 31.97 C 244.65 32.48 252.83 31.90 260.98 32.23 C 262.20 32.44 263.38 32.83 264.57 33.16 C 268.32 34.48 269.26 38.65 268.78 42.21 C 268.12 43.54 267.91 45.01 267.64 46.45 C 267.00 47.84 266.35 49.23 265.72 50.62 C 264.75 52.98 262.77 54.55 260.58 55.72 C 260.05 55.97 258.98 56.46 258.45 56.70 C 256.35 57.25 254.26 58.02 252.05 57.86 C 240.58 57.81 229.10 57.90 217.62 57.81 C 215.72 56.93 213.90 55.91 212.13 54.80 C 212.60 52.01 211.00 48.32 213.38 46.24 C 218.77 45.98 224.18 46.27 229.57 46.12 C 229.97 47.60 230.06 50.08 232.15 50.05 C 236.47 50.27 240.79 50.16 245.11 50.13 C 247.71 50.37 249.38 48.08 251.18 46.60 C 250.93 44.69 251.77 42.16 249.71 41.02 C 241.39 40.54 233.04 41.12 224.72 40.72 C 223.65 40.34 222.58 40.00 221.49 39.69 C 218.88 39.03 218.00 36.59 217.18 34.33 C 217.19 33.14 217.21 31.94 217.26 30.75 C 217.75 29.41 218.14 28.03 218.42 26.63 C 218.72 25.57 219.03 24.51 219.33 23.45 C 219.68 22.99 220.37 22.08 220.72 21.62 C 221.90 19.18 224.04 17.39 226.49 16.29 C 227.54 16.02 228.58 15.73 229.62 15.42 C 231.02 15.14 232.41 14.76 233.76 14.28 Z" />
<path fill="#000000" d=" M 335.67 15.35 C 344.00 13.57 352.52 14.28 360.98 14.14 C 364.18 14.00 367.24 15.12 370.41 15.33 C 370.96 15.56 372.06 16.03 372.60 16.26 C 374.10 17.07 375.47 18.08 376.69 19.27 C 376.97 20.45 377.32 21.60 377.76 22.73 C 377.83 24.57 377.83 26.41 377.76 28.25 C 377.21 29.58 376.89 30.97 376.55 32.35 C 376.17 33.69 375.89 35.06 375.66 36.43 C 375.39 37.04 374.86 38.26 374.60 38.88 C 363.07 38.83 351.55 38.87 340.02 38.84 C 338.29 38.96 335.82 38.41 335.04 40.51 C 334.83 43.72 333.77 47.97 337.42 49.60 C 342.38 50.47 347.58 50.50 352.53 49.59 C 353.70 48.70 354.80 47.73 355.91 46.77 C 356.10 45.48 356.16 44.02 357.37 43.22 C 362.53 43.01 367.69 43.21 372.86 43.16 C 372.83 44.24 372.81 45.31 372.80 46.39 C 371.64 48.85 370.34 51.24 368.81 53.50 C 367.04 54.55 365.33 55.69 363.52 56.69 C 362.07 56.91 360.59 57.10 359.24 57.73 C 348.41 57.93 337.56 57.91 326.73 57.75 C 325.65 57.34 324.57 56.99 323.47 56.68 C 320.51 55.61 318.36 53.32 317.15 50.45 C 317.15 48.22 317.14 45.98 317.26 43.74 C 317.77 42.41 318.11 41.03 318.44 39.64 C 318.79 38.32 319.13 36.99 319.42 35.64 C 319.79 34.32 320.12 32.98 320.40 31.63 C 320.73 30.60 321.04 29.57 321.33 28.54 C 321.83 27.55 322.30 26.56 322.74 25.55 C 324.47 22.13 326.92 19.03 330.41 17.29 C 330.95 17.06 332.04 16.60 332.58 16.38 C 333.61 16.05 334.64 15.71 335.67 15.35 Z" />
<path fill="#000000" d=" M 154.45 15.13 C 169.02 15.27 183.59 14.97 198.16 15.28 C 199.56 15.69 201.00 16.02 202.44 16.31 C 205.19 17.20 208.14 18.64 208.95 21.69 C 210.87 25.08 209.06 28.80 208.60 32.31 C 208.24 33.64 207.91 34.99 207.59 36.33 C 206.41 40.49 205.44 44.77 203.20 48.53 C 201.84 51.34 199.01 52.93 196.54 54.63 C 195.47 54.95 194.41 55.30 193.36 55.67 C 182.89 58.24 171.97 56.02 161.34 57.04 C 159.97 58.06 159.92 59.80 159.56 61.31 C 158.62 65.11 157.63 68.90 156.59 72.68 C 156.29 73.01 155.68 73.67 155.37 74.00 L 139.11 74.00 C 139.55 72.23 140.00 70.45 140.41 68.67 C 141.39 64.94 142.23 61.18 143.41 57.50 C 143.77 56.24 144.10 54.96 144.43 53.68 C 144.79 52.36 145.10 51.03 145.41 49.69 C 145.77 48.36 146.10 47.02 146.39 45.68 C 147.08 43.33 147.75 40.98 148.40 38.62 C 148.76 37.32 149.10 36.00 149.42 34.68 C 149.77 33.36 150.09 32.03 150.40 30.69 C 151.40 26.95 152.21 23.15 153.44 19.47 C 153.80 18.03 154.13 16.58 154.45 15.13 Z" />
<path fill="#000000" d=" M 391.43 15.13 C 402.64 15.19 413.85 15.13 425.06 15.15 C 427.29 15.09 429.42 15.86 431.61 16.21 C 433.30 17.77 434.80 19.50 435.89 21.54 C 435.84 23.11 435.80 24.69 435.73 26.26 C 434.96 28.38 434.66 30.62 434.03 32.78 C 428.37 32.85 422.72 32.83 417.07 32.79 C 417.14 32.27 417.29 31.22 417.36 30.69 C 418.71 28.10 418.59 24.67 415.58 23.42 C 413.11 22.38 410.58 23.18 408.21 24.01 C 407.29 25.13 406.36 26.26 405.51 27.43 C 404.26 30.65 403.55 34.04 402.61 37.35 C 402.22 38.67 401.88 40.01 401.57 41.36 C 401.20 42.68 400.87 44.01 400.56 45.35 C 400.19 46.68 399.88 48.02 399.62 49.38 C 399.24 50.37 398.89 51.38 398.55 52.38 C 398.11 53.85 397.87 55.36 397.62 56.87 C 391.83 56.88 386.03 56.71 380.25 56.98 C 380.76 55.58 381.12 54.13 381.44 52.68 C 381.80 51.34 382.11 49.99 382.40 48.64 C 383.12 46.31 383.81 43.97 384.40 41.61 C 384.79 40.30 385.12 38.97 385.42 37.64 C 385.78 36.31 386.12 34.98 386.43 33.65 C 386.79 32.32 387.11 30.98 387.41 29.64 C 388.06 27.29 388.74 24.95 389.38 22.60 C 389.77 21.29 390.11 19.96 390.41 18.63 C 390.75 17.46 391.09 16.30 391.43 15.13 Z" />
<path fill="#000000" d=" M 510.89 15.17 C 534.27 15.12 557.65 15.19 581.03 15.13 C 585.91 15.07 591.25 16.30 594.00 20.75 L 594.00 28.63 C 592.33 33.82 591.08 39.13 589.58 44.37 C 589.21 45.68 588.90 47.00 588.60 48.32 C 588.20 49.64 587.88 50.97 587.56 52.31 C 587.18 53.82 586.87 55.34 586.57 56.87 C 580.72 56.82 574.88 56.88 569.04 56.81 C 569.75 54.02 570.65 51.27 571.41 48.49 C 571.75 47.23 572.09 45.96 572.43 44.70 C 573.10 42.02 573.78 39.35 574.41 36.66 C 575.78 33.26 576.39 29.64 576.20 25.97 C 574.59 24.87 572.94 23.82 571.30 22.77 C 568.65 23.09 566.00 23.49 563.39 24.02 C 560.13 26.16 558.31 29.62 557.54 33.36 C 557.19 34.67 556.90 35.99 556.60 37.31 C 555.49 40.98 554.66 44.72 553.62 48.41 C 553.22 49.70 552.88 51.00 552.55 52.31 C 552.18 53.82 551.87 55.34 551.57 56.87 C 546.06 56.82 540.55 56.87 535.04 56.81 C 535.52 55.11 536.02 53.41 536.42 51.69 C 537.74 46.65 539.15 41.62 540.38 36.55 C 540.77 35.28 541.14 33.99 541.52 32.71 C 541.92 30.75 542.08 28.76 542.21 26.77 C 541.80 26.10 540.99 24.76 540.58 24.09 C 537.61 23.33 534.50 22.31 531.48 23.49 C 530.92 23.63 529.80 23.92 529.24 24.06 C 525.86 25.60 524.71 29.23 523.49 32.42 C 523.18 33.71 522.90 35.01 522.61 36.30 C 521.24 41.34 520.04 46.41 518.65 51.44 C 517.97 53.17 518.05 55.32 516.70 56.73 C 511.04 57.03 505.36 56.84 499.69 56.72 C 500.13 55.90 500.57 55.08 501.02 54.26 C 501.09 53.63 501.24 52.38 501.31 51.75 C 501.72 50.41 502.09 49.05 502.43 47.69 C 502.77 46.36 503.09 45.03 503.39 43.70 C 504.36 40.01 505.33 36.32 506.39 32.66 C 507.10 30.00 507.73 27.32 508.40 24.65 C 509.21 21.49 510.00 18.32 510.89 15.17 Z" />
<path fill="#ffffff" d=" M 341.33 24.07 C 344.43 22.95 347.70 21.92 351.04 22.17 C 352.59 22.02 354.19 21.95 355.67 22.56 C 358.47 22.43 360.12 24.46 361.31 26.71 C 361.06 28.05 360.72 29.37 360.31 30.67 C 360.22 31.27 360.04 32.46 359.94 33.06 C 352.55 33.20 345.15 33.21 337.76 33.06 C 337.93 31.55 338.10 30.05 338.46 28.57 C 339.44 27.09 340.46 25.63 341.33 24.07 Z" />
<path fill="#ffffff" d=" M 174.31 23.66 C 178.82 22.20 183.89 22.67 188.52 23.41 C 189.77 24.35 190.96 25.36 192.18 26.35 C 192.13 28.45 192.25 30.62 191.45 32.61 C 191.10 33.62 190.74 34.62 190.38 35.62 C 190.11 36.96 189.81 38.30 189.45 39.62 C 188.99 41.33 188.51 43.03 187.96 44.72 C 186.57 46.10 185.09 47.38 183.55 48.60 C 177.94 49.72 172.15 48.96 166.47 49.09 C 165.61 48.23 164.74 47.37 163.88 46.52 C 163.53 42.70 164.30 38.95 165.60 35.37 C 165.89 34.04 166.18 32.70 166.58 31.40 C 166.88 30.41 167.19 29.43 167.53 28.46 C 168.61 26.44 170.44 25.06 172.44 24.02 C 172.91 23.93 173.85 23.75 174.31 23.66 Z" />
<path fill="#ffffff" d=" M 100.45 39.91 C 106.18 39.90 111.93 39.65 117.65 40.01 C 118.74 40.85 119.15 42.18 119.52 43.44 C 119.32 44.50 119.12 45.57 118.93 46.64 C 118.15 47.41 117.37 48.21 116.61 49.01 C 116.14 49.08 115.18 49.24 114.70 49.32 C 110.20 51.01 105.20 49.84 100.50 50.08 C 99.32 49.29 98.04 48.63 97.01 47.64 C 96.86 46.27 96.87 44.88 96.85 43.50 C 98.06 42.31 99.26 41.12 100.45 39.91 Z" />
<path fill="#000000" d=" M 434.50 45.14 C 438.86 45.23 443.23 45.01 447.59 45.22 C 448.67 46.18 449.19 47.58 449.90 48.81 C 449.43 50.03 449.01 51.27 448.69 52.53 C 447.97 54.58 446.40 55.95 444.49 56.85 C 439.79 56.76 435.09 57.00 430.40 56.76 C 428.10 55.11 429.53 51.84 429.12 49.43 C 430.72 47.77 432.45 46.22 434.50 45.14 Z" />
</svg>
